<svg width="20" height="20" viewBox="0 0 20 20" fill="none" xmlns="http://www.w3.org/2000/svg">
<path d="M17.6089 8.21124C18.5752 9.22797 18.5752 10.7727 17.6089 11.7894C15.9791 13.5042 13.1799 15.8337 10.0003 15.8337C6.82073 15.8337 4.02157 13.5042 2.39175 11.7894C1.42541 10.7727 1.42541 9.22797 2.39175 8.21124C4.02157 6.49644 6.82073 4.16699 10.0003 4.16699C13.1799 4.16699 15.9791 6.49644 17.6089 8.21124Z" stroke="#072127" stroke-width="1.3875"/>
<path d="M12.5003 10.0003C12.5003 11.381 11.381 12.5003 10.0003 12.5003C8.61961 12.5003 7.50032 11.381 7.50032 10.0003C7.50032 8.61961 8.61961 7.50033 10.0003 7.50033C11.381 7.50033 12.5003 8.61961 12.5003 10.0003Z" stroke="#072127" stroke-width="1.3875"/>
</svg>
